<svg xmlns="http://www.w3.org/2000/svg" viewBox="0 0 512 334.019"><path fill="#257FC4" fill-rule="nonzero" d="M382.899 82.552c45.231-5.085 81.848 15.499 104.54 47.123 10.106 14.083 17.349 30.304 21.232 47.305v.087c3.879 16.994 4.459 34.942 1.259 52.496-8.363 45.842-41.733 88.393-108.286 103.84l-2.653.616H101.436l-2.079-.264c-39.54-5.031-68.726-27.357-84.934-56.176C5.496 261.708.553 243.751.043 225.561c-.511-18.261 3.498-36.737 12.468-53.566 13.909-26.098 39.378-47.907 77.895-58.16 9.734-34.832 29.069-61.881 53.615-80.929C167.877 14.393 196.623 3.623 226.19.768c29.357-2.838 59.629 2.179 86.77 15.197 28.298 13.579 53.124 35.725 69.939 66.587z"/><path fill="#88DFF3" d="M391.413 104.396c108.341-5.177 149.694 173.638 5.235 207.177H102.164c-98.412-12.527-116.506-157.237 6.802-178.868C133.447 3.849 299.783-13.921 360.68 88.848c-7.169 2.655-14.111 5.987-20.739 9.914-15.11 8.953-28.652 21.035-39.575 35.267-3.75 4.914-2.809 11.944 2.105 15.694 4.915 3.75 11.944 2.809 15.695-2.106 9.161-11.936 20.513-22.066 33.17-29.566 12.175-7.211 25.518-11.971 39.211-13.526.292-.032.581-.075.866-.129z"/><path fill="#A3EDFD" d="M391.638 104.351c25.54-1.162 47.347 7.912 63.861 22.888 15.499 52.302-6.834 117.54-88.384 136.475H72.634c-19.11-2.433-35.172-9.863-47.779-20.395-10.84-45.243 13.337-98.198 84.11-110.612C133.447 3.849 299.784-13.924 360.68 88.849a127.88 127.88 0 00-20.739 9.913c-15.11 8.953-28.652 21.035-39.575 35.267-3.75 4.914-2.809 11.944 2.105 15.694 4.915 3.75 11.944 2.809 15.695-2.106 9.161-11.936 20.513-22.066 33.17-29.566 12.175-7.211 25.518-11.971 39.211-13.526.371-.041.735-.099 1.091-.174z"/><path fill="#fff" d="M322.164 87.781c.821-43.255-103.682-69.505-146.901-1.357 46.811-27.082 102.981-26.973 146.901 1.357z"/></svg>