<svg width="106" height="60" viewBox="0 0 106 60" fill="none" xmlns="http://www.w3.org/2000/svg">
<path d="M11.9904 31.1883C11.9904 31.8277 11.8217 32.3281 11.4833 32.6882C11.1448 33.0415 10.6901 33.2182 10.1169 33.2182C9.54373 33.2182 9.07309 33.0381 8.7278 32.678C8.38251 32.3178 8.2093 31.8209 8.2093 31.1883V26.6443H6.73242V31.1883C6.73242 31.8653 6.86803 32.45 7.14039 32.9424C7.41274 33.4279 7.80133 33.8029 8.30844 34.0673C8.81555 34.3317 9.41837 34.4639 10.1158 34.4639C10.8132 34.4639 11.4012 34.3317 11.9015 34.0673C12.4086 33.8029 12.7938 33.4279 13.0581 32.9424C13.3305 32.45 13.4661 31.8653 13.4661 31.1883V26.6443H11.9892V31.1883H11.9904Z" fill="#062456"/>
<path d="M25.2581 27.6256V26.6432H18.8548V27.8786H23.2638L18.7227 33.3823V34.3648H25.3139V33.1293H20.718L25.2581 27.6256Z" fill="#062456"/>
<path d="M35.2431 34.3089C35.6101 34.1983 35.9599 34.0445 36.2904 33.845C36.6288 33.6467 36.9262 33.4153 37.1827 33.1498L36.312 32.2346C36.0249 32.5218 35.6989 32.7497 35.3309 32.9184C34.9639 33.0803 34.5924 33.1612 34.2175 33.1612C33.8426 33.1612 33.5201 33.0917 33.2033 32.9515C32.8945 32.8113 32.6187 32.621 32.3771 32.3782C32.1424 32.1354 31.9589 31.8528 31.8256 31.5291C31.6934 31.1986 31.6273 30.8453 31.6273 30.4703C31.6273 30.0953 31.6934 29.7466 31.8256 29.4229C31.9577 29.0992 32.1412 28.8166 32.3771 28.5738C32.6198 28.3242 32.8956 28.1327 33.2033 28.0005C33.5189 27.8604 33.8574 27.7908 34.2175 27.7908C34.5776 27.7908 34.9673 27.8832 35.3411 28.0666C35.716 28.2433 36.0385 28.4861 36.3109 28.7949L37.1701 27.7806C36.9205 27.523 36.6334 27.3065 36.3109 27.1298C35.9872 26.9463 35.6454 26.8061 35.2853 26.7104C34.9332 26.6078 34.5685 26.5565 34.1947 26.5565C33.6147 26.5565 33.0779 26.6557 32.5856 26.854C32.1002 27.0523 31.6706 27.3315 31.2957 27.6917C30.9207 28.0518 30.6302 28.4712 30.425 28.9488C30.2199 29.4195 30.1162 29.9346 30.1162 30.4931C30.1162 31.0516 30.2188 31.5633 30.425 32.0488C30.6313 32.5343 30.9139 32.9572 31.274 33.3173C31.6409 33.6775 32.0671 33.9601 32.5526 34.1664C33.0449 34.3647 33.5736 34.4639 34.14 34.4639C34.5149 34.4639 34.8819 34.4126 35.242 34.3089H35.2431Z" fill="#062456"/>
<path d="M47.4508 26.8529C46.9516 26.6546 46.4115 26.5554 45.8303 26.5554C45.2491 26.5554 44.7101 26.6546 44.2098 26.8529C43.7175 27.0512 43.2845 27.3304 42.9096 27.6906C42.5347 28.0439 42.2407 28.4587 42.0276 28.9374C41.8213 29.415 41.7188 29.9335 41.7188 30.4931C41.7188 31.0527 41.8213 31.5736 42.0276 32.0591C42.2407 32.5367 42.5347 32.9561 42.9096 33.3162C43.2845 33.6764 43.7175 33.959 44.2098 34.1653C44.709 34.3636 45.2491 34.4628 45.8303 34.4628C46.4115 34.4628 46.9505 34.3636 47.4508 34.1653C47.9499 33.959 48.3841 33.6764 48.751 33.3162C49.1259 32.9561 49.4154 32.5332 49.6216 32.0477C49.8347 31.5622 49.9407 31.0436 49.9407 30.492C49.9407 29.9404 49.8336 29.4184 49.6216 28.9477C49.4154 28.4701 49.1259 28.0507 48.751 27.6906C48.3841 27.3304 47.9499 27.0512 47.4508 26.8529ZM48.2222 31.5633C48.0901 31.887 47.9066 32.1731 47.6707 32.4238C47.4359 32.6734 47.1602 32.8683 46.8445 33.0085C46.5357 33.1487 46.2052 33.2182 45.8531 33.2182C45.501 33.2182 45.1659 33.1487 44.8503 33.0085C44.5346 32.8683 44.2554 32.6734 44.0127 32.4238C43.77 32.1742 43.5797 31.887 43.4395 31.5633C43.3005 31.2328 43.2298 30.8761 43.2298 30.4931C43.2298 30.1102 43.2959 29.758 43.4281 29.4343C43.5683 29.1107 43.7586 28.828 44.0013 28.5853C44.244 28.3357 44.5232 28.1442 44.8389 28.012C45.1545 27.8718 45.493 27.8023 45.8531 27.8023C46.2132 27.8023 46.5368 27.8718 46.8445 28.012C47.1602 28.1442 47.4359 28.3357 47.6707 28.5853C47.9054 28.828 48.0901 29.1107 48.2222 29.4343C48.3624 29.758 48.4319 30.1113 48.4319 30.4931C48.4319 30.875 48.3624 31.2317 48.2222 31.5633Z" fill="#062456"/>
<path d="M58.8741 32.931C58.6462 33.0929 58.3226 33.1738 57.9043 33.1738C57.632 33.1738 57.3391 33.1293 57.0223 33.0416C56.7135 32.9458 56.4047 32.8136 56.097 32.6449C55.7882 32.4683 55.5021 32.2586 55.2378 32.0158L54.6201 33.2182C54.8993 33.461 55.2116 33.6741 55.5568 33.8576C55.909 34.0411 56.2805 34.1881 56.6702 34.2987C57.0668 34.4012 57.4713 34.4537 57.8827 34.4537C58.4479 34.4537 58.9516 34.3614 59.3926 34.1779C59.8405 33.9944 60.1937 33.7334 60.4501 33.3949C60.7077 33.0564 60.8364 32.6484 60.8364 32.1708C60.8364 31.7742 60.7624 31.4425 60.6165 31.1781C60.4695 30.9137 60.2712 30.696 60.0217 30.5273C59.7789 30.3587 59.5111 30.2219 59.2171 30.1193C58.9231 30.0088 58.6291 29.9096 58.3351 29.8219C58.0411 29.733 57.7699 29.6418 57.5192 29.546C57.2764 29.4503 57.0782 29.3295 56.9243 29.1825C56.7773 29.0355 56.7044 28.844 56.7044 28.6092C56.7044 28.3516 56.8069 28.1567 57.0132 28.0245C57.2263 27.8923 57.5055 27.8262 57.8508 27.8262C58.0559 27.8262 58.2838 27.8524 58.5345 27.9037C58.7841 27.9482 59.0485 28.0245 59.3277 28.1351C59.6148 28.2456 59.8929 28.3847 60.1652 28.5545L60.7601 27.3407C60.3932 27.0979 59.9624 26.903 59.4701 26.756C58.9846 26.609 58.4855 26.5349 57.9716 26.5349C57.3915 26.5349 56.8844 26.6272 56.4503 26.8107C56.0241 26.9874 55.6902 27.2404 55.4474 27.5721C55.2047 27.8957 55.0839 28.2821 55.0839 28.73C55.0839 29.1266 55.158 29.4549 55.3039 29.7113C55.4577 29.9689 55.656 30.182 55.8987 30.3507C56.1483 30.5125 56.4206 30.6482 56.7146 30.7587C57.0086 30.8613 57.3027 30.9536 57.5967 31.0345C57.8975 31.1075 58.1699 31.1964 58.4126 31.2989C58.6553 31.3947 58.8502 31.5155 58.9972 31.6625C59.151 31.8095 59.2285 32.0044 59.2285 32.2472C59.2285 32.5412 59.1111 32.7692 58.8753 32.931H58.8741Z" fill="#062456"/>
<path d="M70.5561 31.7058L67.9989 26.6432H66.3135V34.3648H67.6582V28.7061L70.0718 33.5704H71.0187L73.4221 28.7061V34.3648H74.777V26.6432H73.0916L70.5561 31.7058Z" fill="#062456"/>
<path d="M87.1817 27.6917C86.8147 27.3315 86.3806 27.0523 85.8814 26.854C85.3823 26.6557 84.8421 26.5565 84.261 26.5565C83.6798 26.5565 83.1408 26.6557 82.6405 26.854C82.1482 27.0523 81.7152 27.3315 81.3403 27.6917C80.9653 28.045 80.6713 28.4598 80.4582 28.9385C80.252 29.4161 80.1494 29.9346 80.1494 30.4942C80.1494 31.0538 80.252 31.5747 80.4582 32.0602C80.6713 32.5378 80.9653 32.9572 81.3403 33.3173C81.7152 33.6775 82.1482 33.9601 82.6405 34.1664C83.1396 34.3647 83.6798 34.4639 84.261 34.4639C84.8421 34.4639 85.3812 34.3647 85.8814 34.1664C86.3806 33.9601 86.8147 33.6775 87.1817 33.3173C87.5566 32.9572 87.8472 32.5343 88.0523 32.0488C88.2654 31.5633 88.3714 31.0447 88.3714 30.4931C88.3714 29.9415 88.2654 29.4195 88.0523 28.9488C87.846 28.4712 87.5566 28.0518 87.1817 27.6917ZM86.6518 31.5633C86.5196 31.887 86.3361 32.1731 86.1002 32.4238C85.8655 32.6734 85.5897 32.8683 85.274 33.0085C84.9652 33.1486 84.6347 33.2182 84.2826 33.2182C83.9305 33.2182 83.5955 33.1486 83.2798 33.0085C82.9641 32.8683 82.6849 32.6734 82.4422 32.4238C82.1995 32.1742 82.0092 31.887 81.869 31.5633C81.7288 31.2328 81.6593 30.8761 81.6593 30.4931C81.6593 30.1102 81.7254 29.758 81.8576 29.4343C81.9978 29.1106 82.1881 28.828 82.4308 28.5852C82.6735 28.3356 82.9527 28.1441 83.2684 28.0119C83.5841 27.8718 83.9225 27.8022 84.2826 27.8022C84.6427 27.8022 84.9663 27.8718 85.274 28.0119C85.5897 28.1441 85.8655 28.3356 86.1002 28.5852C86.335 28.828 86.5196 29.1106 86.6518 29.4343C86.7919 29.758 86.8614 30.1113 86.8614 30.4931C86.8614 30.8749 86.7919 31.2316 86.6518 31.5633Z" fill="#062456"/>
<path d="M99.046 31.177C98.899 30.9126 98.7007 30.6949 98.4512 30.5262C98.2085 30.3576 97.9407 30.2208 97.6466 30.1182C97.3526 30.0077 97.0586 29.9085 96.7646 29.8208C96.4706 29.7319 96.1994 29.6407 95.9487 29.545C95.706 29.4492 95.5077 29.3284 95.3538 29.1814C95.2068 29.0344 95.1339 28.8429 95.1339 28.6081C95.1339 28.3505 95.2365 28.1556 95.4427 28.0234C95.6558 27.8912 95.935 27.8251 96.2803 27.8251C96.4854 27.8251 96.7133 27.8513 96.964 27.9026C97.2136 27.9471 97.478 28.0234 97.7572 28.134C98.0444 28.2445 98.3235 28.3836 98.5948 28.5534L99.1896 27.3396C98.8227 27.0968 98.3919 26.9019 97.8996 26.7549C97.4142 26.6079 96.915 26.5338 96.4011 26.5338C95.8211 26.5338 95.314 26.6261 94.8798 26.8096C94.4536 26.9863 94.1197 27.2393 93.877 27.571C93.6342 27.8946 93.5134 28.281 93.5134 28.7289C93.5134 29.1255 93.5875 29.4538 93.7334 29.7102C93.8872 29.9678 94.0855 30.1809 94.3282 30.3496C94.5778 30.5114 94.8502 30.6471 95.1442 30.7576C95.4382 30.8602 95.7322 30.9525 96.0262 31.0334C96.327 31.1064 96.5994 31.1953 96.8421 31.2978C97.0848 31.3936 97.2797 31.5144 97.4267 31.6614C97.5806 31.8084 97.658 32.0033 97.658 32.2461C97.658 32.5401 97.5407 32.7681 97.3048 32.9299C97.0769 33.0918 96.7532 33.1727 96.335 33.1727C96.0627 33.1727 95.7698 33.1282 95.453 33.0405C95.1442 32.9447 94.8353 32.8125 94.5277 32.6438C94.2188 32.4672 93.9328 32.2575 93.6684 32.0147L93.0508 33.2171C93.33 33.4599 93.6422 33.673 93.9875 33.8565C94.3396 34.04 94.7111 34.187 95.1009 34.2976C95.4974 34.4001 95.902 34.4526 96.3134 34.4526C96.8797 34.4526 97.3823 34.3603 97.8233 34.1768C98.2711 33.9933 98.6244 33.7323 98.8808 33.3938C99.1383 33.0553 99.2671 32.6473 99.2671 32.1697C99.2671 31.7731 99.193 31.4414 99.0472 31.177H99.046Z" fill="#062456"/>
<path d="M35.4837 22.0581C36.1857 20.271 37.5578 17.9893 38.7577 16.5111C39.4164 15.6996 41.3685 13.7735 42.2231 13.1296C42.6231 12.8253 43.3684 12.301 43.8755 11.975C46.0817 10.5812 48.6491 9.49957 51.1755 8.98898C52.7766 8.68467 53.7703 8.53993 55.6711 8.54791C58.0665 8.54791 59.5206 8.77585 61.6265 9.34571C63.1182 9.76854 64.0617 10.1447 65.4691 10.8353C67.5853 11.9044 69.1294 12.9848 70.8706 14.6807C71.6125 15.3896 72.4341 16.2957 72.8615 16.8542C72.8774 16.877 72.907 16.869 72.9458 16.8394C72.9766 16.8086 72.7384 16.4667 72.4159 16.0792C72.0934 15.6917 71.494 15.0158 71.0712 14.5827C68.6234 12.0833 65.5512 10.1241 62.2419 9.00493C60.9872 8.56956 59.6231 8.24588 58.3229 8.03275C57.2095 7.82646 53.8581 7.76036 52.7128 7.88801C52.2057 7.9336 51.4137 8.04757 50.9454 8.12393C46.9968 8.81232 43.2396 10.6005 40.1867 13.2071C39.3503 13.924 38.0341 15.246 37.3595 16.0951C36.678 16.9328 35.7493 18.3028 35.208 19.2487C34.4091 20.5947 33.5066 22.9072 33.118 24.3626L33.0713 24.6134L34.6314 24.5678C34.8581 23.7905 35.1772 22.8138 35.4849 22.0604L35.4837 22.0581Z" fill="#062456"/>
<path d="M72.8606 44.1663C72.4333 44.7248 71.6128 45.6309 70.8698 46.3398C69.1286 48.0357 67.5845 49.115 65.4683 50.1852C64.0621 50.8759 63.1185 51.252 61.6257 51.6748C59.5198 52.2447 58.0657 52.4738 55.6703 52.4726C53.7695 52.4817 52.777 52.3358 51.1747 52.0315C48.6483 51.5209 46.0797 50.4394 43.8747 49.0455C43.3676 48.7184 42.6223 48.1941 42.2223 47.8909C41.3676 47.247 39.4156 45.3209 38.7569 44.5094C37.5581 43.0312 36.1849 40.7495 35.4829 38.9624C35.1753 38.209 34.8562 37.2323 34.6294 36.455L33.0693 36.4094L33.1161 36.6602C33.5046 38.1156 34.4072 40.4281 35.206 41.7741C35.7473 42.72 36.6761 44.09 37.3575 44.9277C38.0333 45.7756 39.3495 47.0988 40.1848 47.8157C43.2377 50.4223 46.9948 52.2116 50.9434 52.8989C51.4118 52.9752 52.2038 53.0892 52.7109 53.1348C53.8561 53.2636 57.2076 53.1963 58.3209 52.99C59.6212 52.7769 60.9864 52.4521 62.2399 52.0179C65.5492 50.8987 68.6215 48.9395 71.0693 46.4401C71.492 46.007 72.0914 45.3311 72.4139 44.9436C72.7364 44.5561 72.9746 44.2142 72.9438 44.1834C72.9051 44.1527 72.8743 44.1458 72.8595 44.1686L72.8606 44.1663Z" fill="#062456"/>
</svg>
