<svg width="106" height="60" viewBox="0 0 106 60" fill="none" xmlns="http://www.w3.org/2000/svg">
<path d="M11.9904 31.1883C11.9904 31.8277 11.8217 32.3281 11.4833 32.6882C11.1448 33.0415 10.6901 33.2182 10.1169 33.2182C9.54373 33.2182 9.07309 33.0381 8.7278 32.678C8.38251 32.3178 8.2093 31.8209 8.2093 31.1883V26.6443H6.73242V31.1883C6.73242 31.8653 6.86803 32.45 7.14039 32.9424C7.41274 33.4279 7.80133 33.8029 8.30844 34.0673C8.81555 34.3317 9.41837 34.4639 10.1158 34.4639C10.8132 34.4639 11.4012 34.3317 11.9015 34.0673C12.4086 33.8029 12.7938 33.4279 13.0581 32.9424C13.3305 32.45 13.4661 31.8653 13.4661 31.1883V26.6443H11.9892V31.1883H11.9904Z" fill="white"/>
<path d="M25.2581 27.6256V26.6432H18.8548V27.8786H23.2638L18.7227 33.3823V34.3648H25.3139V33.1293H20.718L25.2581 27.6256Z" fill="white"/>
<path d="M35.2441 34.3089C35.611 34.1983 35.9609 34.0445 36.2913 33.845C36.6298 33.6467 36.9272 33.4153 37.1836 33.1498L36.313 32.2346C36.0258 32.5218 35.6999 32.7497 35.3318 32.9184C34.9649 33.0803 34.5934 33.1612 34.2185 33.1612C33.8436 33.1612 33.5211 33.0917 33.2043 32.9515C32.8954 32.8113 32.6197 32.621 32.3781 32.3782C32.1433 32.1354 31.9599 31.8528 31.8265 31.5291C31.6943 31.1986 31.6283 30.8453 31.6283 30.4703C31.6283 30.0953 31.6943 29.7466 31.8265 29.4229C31.9587 29.0992 32.1422 28.8166 32.3781 28.5738C32.6208 28.3242 32.8966 28.1327 33.2043 28.0005C33.5199 27.8604 33.8584 27.7908 34.2185 27.7908C34.5786 27.7908 34.9683 27.8832 35.3421 28.0666C35.717 28.2433 36.0395 28.4861 36.3119 28.7949L37.1711 27.7806C36.9215 27.523 36.6344 27.3065 36.3119 27.1298C35.9882 26.9463 35.6464 26.8061 35.2863 26.7104C34.9341 26.6078 34.5695 26.5565 34.1957 26.5565C33.6157 26.5565 33.0789 26.6557 32.5866 26.854C32.1012 27.0523 31.6716 27.3315 31.2966 27.6917C30.9217 28.0518 30.6311 28.4712 30.426 28.9488C30.2209 29.4195 30.1172 29.9346 30.1172 30.4931C30.1172 31.0516 30.2197 31.5633 30.426 32.0488C30.6323 32.5343 30.9149 32.9572 31.275 33.3173C31.6419 33.6775 32.0681 33.9601 32.5536 34.1664C33.0459 34.3647 33.5746 34.4639 34.141 34.4639C34.5159 34.4639 34.8828 34.4126 35.2429 34.3089H35.2441Z" fill="white"/>
<path d="M47.4508 26.8529C46.9516 26.6546 46.4115 26.5554 45.8303 26.5554C45.2491 26.5554 44.7101 26.6546 44.2098 26.8529C43.7175 27.0512 43.2845 27.3304 42.9096 27.6906C42.5347 28.0439 42.2407 28.4587 42.0276 28.9374C41.8213 29.415 41.7188 29.9335 41.7188 30.4931C41.7188 31.0527 41.8213 31.5736 42.0276 32.0591C42.2407 32.5367 42.5347 32.9561 42.9096 33.3162C43.2845 33.6764 43.7175 33.959 44.2098 34.1653C44.709 34.3636 45.2491 34.4628 45.8303 34.4628C46.4115 34.4628 46.9505 34.3636 47.4508 34.1653C47.9499 33.959 48.3841 33.6764 48.751 33.3162C49.1259 32.9561 49.4154 32.5332 49.6216 32.0477C49.8347 31.5622 49.9407 31.0436 49.9407 30.492C49.9407 29.9404 49.8336 29.4184 49.6216 28.9477C49.4154 28.4701 49.1259 28.0507 48.751 27.6906C48.3841 27.3304 47.9499 27.0512 47.4508 26.8529ZM48.2222 31.5633C48.0901 31.887 47.9066 32.1731 47.6707 32.4238C47.4359 32.6734 47.1602 32.8683 46.8445 33.0085C46.5357 33.1487 46.2052 33.2182 45.8531 33.2182C45.501 33.2182 45.1659 33.1487 44.8503 33.0085C44.5346 32.8683 44.2554 32.6734 44.0127 32.4238C43.77 32.1742 43.5797 31.887 43.4395 31.5633C43.3005 31.2328 43.2298 30.8761 43.2298 30.4931C43.2298 30.1102 43.2959 29.758 43.4281 29.4343C43.5683 29.1107 43.7586 28.828 44.0013 28.5853C44.244 28.3357 44.5232 28.1442 44.8389 28.012C45.1545 27.8718 45.493 27.8023 45.8531 27.8023C46.2132 27.8023 46.5368 27.8718 46.8445 28.012C47.1602 28.1442 47.4359 28.3357 47.6707 28.5853C47.9054 28.828 48.0901 29.1107 48.2222 29.4343C48.3624 29.758 48.4319 30.1113 48.4319 30.4931C48.4319 30.875 48.3624 31.2317 48.2222 31.5633Z" fill="white"/>
<path d="M58.8751 32.931C58.6472 33.0929 58.3235 33.1738 57.9053 33.1738C57.633 33.1738 57.3401 33.1293 57.0233 33.0416C56.7145 32.9458 56.4057 32.8136 56.098 32.6449C55.7891 32.4683 55.5031 32.2586 55.2387 32.0158L54.6211 33.2182C54.9003 33.461 55.2125 33.6741 55.5578 33.8576C55.9099 34.0411 56.2814 34.1881 56.6712 34.2987C57.0677 34.4012 57.4723 34.4537 57.8837 34.4537C58.4489 34.4537 58.9526 34.3614 59.3936 34.1779C59.8414 33.9944 60.1947 33.7334 60.4511 33.3949C60.7086 33.0564 60.8374 32.6484 60.8374 32.1708C60.8374 31.7742 60.7633 31.4425 60.6175 31.1781C60.4705 30.9137 60.2722 30.696 60.0226 30.5273C59.7799 30.3587 59.5121 30.2219 59.2181 30.1193C58.9241 30.0088 58.6301 29.9096 58.3361 29.8219C58.0421 29.733 57.7708 29.6418 57.5201 29.546C57.2774 29.4503 57.0791 29.3295 56.9253 29.1825C56.7783 29.0355 56.7054 28.844 56.7054 28.6092C56.7054 28.3516 56.8079 28.1567 57.0142 28.0245C57.2273 27.8923 57.5065 27.8262 57.8518 27.8262C58.0569 27.8262 58.2848 27.8524 58.5355 27.9037C58.7851 27.9482 59.0494 28.0245 59.3286 28.1351C59.6158 28.2456 59.8939 28.3847 60.1662 28.5545L60.7611 27.3407C60.3941 27.0979 59.9634 26.903 59.4711 26.756C58.9856 26.609 58.4865 26.5349 57.9726 26.5349C57.3925 26.5349 56.8854 26.6272 56.4512 26.8107C56.025 26.9874 55.6911 27.2404 55.4484 27.5721C55.2057 27.8957 55.0849 28.2821 55.0849 28.73C55.0849 29.1266 55.159 29.4549 55.3048 29.7113C55.4587 29.9689 55.657 30.182 55.8997 30.3507C56.1492 30.5125 56.4216 30.6482 56.7156 30.7587C57.0096 30.8613 57.3036 30.9536 57.5976 31.0345C57.8985 31.1075 58.1708 31.1964 58.4136 31.2989C58.6563 31.3947 58.8512 31.5155 58.9982 31.6625C59.152 31.8095 59.2295 32.0044 59.2295 32.2472C59.2295 32.5412 59.1121 32.7692 58.8762 32.931H58.8751Z" fill="white"/>
<path d="M70.5571 31.7058L67.9999 26.6432H66.3145V34.3648H67.6591V28.7061L70.0727 33.5704H71.0197L73.4231 28.7061V34.3648H74.778V26.6432H73.0926L70.5571 31.7058Z" fill="white"/>
<path d="M87.1807 27.6917C86.8137 27.3315 86.3796 27.0523 85.8804 26.854C85.3813 26.6557 84.8412 26.5565 84.26 26.5565C83.6788 26.5565 83.1398 26.6557 82.6395 26.854C82.1472 27.0523 81.7142 27.3315 81.3393 27.6917C80.9644 28.045 80.6704 28.4598 80.4573 28.9385C80.251 29.4161 80.1484 29.9346 80.1484 30.4942C80.1484 31.0538 80.251 31.5747 80.4573 32.0602C80.6704 32.5378 80.9644 32.9572 81.3393 33.3173C81.7142 33.6775 82.1472 33.9601 82.6395 34.1664C83.1387 34.3647 83.6788 34.4639 84.26 34.4639C84.8412 34.4639 85.3802 34.3647 85.8804 34.1664C86.3796 33.9601 86.8137 33.6775 87.1807 33.3173C87.5556 32.9572 87.8462 32.5343 88.0513 32.0488C88.2644 31.5633 88.3704 31.0447 88.3704 30.4931C88.3704 29.9415 88.2644 29.4195 88.0513 28.9488C87.8451 28.4712 87.5556 28.0518 87.1807 27.6917ZM86.6508 31.5633C86.5186 31.887 86.3351 32.1731 86.0992 32.4238C85.8645 32.6734 85.5887 32.8683 85.2731 33.0085C84.9642 33.1486 84.6338 33.2182 84.2816 33.2182C83.9295 33.2182 83.5945 33.1486 83.2788 33.0085C82.9632 32.8683 82.684 32.6734 82.4412 32.4238C82.1985 32.1742 82.0082 31.887 81.868 31.5633C81.7279 31.2328 81.6584 30.8761 81.6584 30.4931C81.6584 30.1102 81.7245 29.758 81.8566 29.4343C81.9968 29.1106 82.1871 28.828 82.4298 28.5852C82.6726 28.3356 82.9518 28.1441 83.2674 28.0119C83.5831 27.8718 83.9215 27.8022 84.2816 27.8022C84.6417 27.8022 84.9654 27.8718 85.2731 28.0119C85.5887 28.1441 85.8645 28.3356 86.0992 28.5852C86.334 28.828 86.5186 29.1106 86.6508 29.4343C86.791 29.758 86.8605 30.1113 86.8605 30.4931C86.8605 30.8749 86.791 31.2316 86.6508 31.5633Z" fill="white"/>
<path d="M99.046 31.177C98.899 30.9126 98.7007 30.6949 98.4512 30.5262C98.2085 30.3576 97.9407 30.2208 97.6466 30.1182C97.3526 30.0077 97.0586 29.9085 96.7646 29.8208C96.4706 29.7319 96.1994 29.6407 95.9487 29.545C95.706 29.4492 95.5077 29.3284 95.3538 29.1814C95.2068 29.0344 95.1339 28.8429 95.1339 28.6081C95.1339 28.3505 95.2365 28.1556 95.4427 28.0234C95.6558 27.8912 95.935 27.8251 96.2803 27.8251C96.4854 27.8251 96.7133 27.8513 96.964 27.9026C97.2136 27.9471 97.478 28.0234 97.7572 28.134C98.0444 28.2445 98.3235 28.3836 98.5948 28.5534L99.1896 27.3396C98.8227 27.0968 98.3919 26.9019 97.8996 26.7549C97.4142 26.6079 96.915 26.5338 96.4011 26.5338C95.8211 26.5338 95.314 26.6261 94.8798 26.8096C94.4536 26.9863 94.1197 27.2393 93.877 27.571C93.6342 27.8946 93.5134 28.281 93.5134 28.7289C93.5134 29.1255 93.5875 29.4538 93.7334 29.7102C93.8872 29.9678 94.0855 30.1809 94.3282 30.3496C94.5778 30.5114 94.8502 30.6471 95.1442 30.7576C95.4382 30.8602 95.7322 30.9525 96.0262 31.0334C96.327 31.1064 96.5994 31.1953 96.8421 31.2978C97.0848 31.3936 97.2797 31.5144 97.4267 31.6614C97.5806 31.8084 97.658 32.0033 97.658 32.2461C97.658 32.5401 97.5407 32.7681 97.3048 32.9299C97.0769 33.0918 96.7532 33.1727 96.335 33.1727C96.0627 33.1727 95.7698 33.1282 95.453 33.0405C95.1442 32.9447 94.8353 32.8125 94.5277 32.6438C94.2188 32.4672 93.9328 32.2575 93.6684 32.0147L93.0508 33.2171C93.33 33.4599 93.6422 33.673 93.9875 33.8565C94.3396 34.04 94.7111 34.187 95.1009 34.2976C95.4974 34.4001 95.902 34.4526 96.3134 34.4526C96.8797 34.4526 97.3823 34.3603 97.8233 34.1768C98.2711 33.9933 98.6244 33.7323 98.8808 33.3938C99.1383 33.0553 99.2671 32.6473 99.2671 32.1697C99.2671 31.7731 99.193 31.4414 99.0472 31.177H99.046Z" fill="white"/>
<path d="M35.4847 22.0581C36.1867 20.271 37.5587 17.9893 38.7587 16.5111C39.4174 15.6996 41.3694 13.7735 42.2241 13.1296C42.6241 12.8253 43.3694 12.301 43.8765 11.975C46.0827 10.5812 48.6501 9.49957 51.1765 8.98898C52.7776 8.68467 53.7713 8.53993 55.6721 8.54791C58.0675 8.54791 59.5216 8.77585 61.6275 9.34571C63.1192 9.76854 64.0627 10.1447 65.4701 10.8353C67.5863 11.9044 69.1304 12.9848 70.8716 14.6807C71.6135 15.3896 72.4351 16.2957 72.8624 16.8542C72.8784 16.877 72.908 16.869 72.9468 16.8394C72.9775 16.8086 72.7394 16.4667 72.4169 16.0792C72.0944 15.6917 71.495 15.0158 71.0722 14.5827C68.6244 12.0833 65.5521 10.1241 62.2428 9.00493C60.9882 8.56956 59.6241 8.24588 58.3239 8.03275C57.2105 7.82646 53.8591 7.76036 52.7138 7.88801C52.2067 7.9336 51.4147 8.04757 50.9463 8.12393C46.9977 8.81232 43.2406 10.6005 40.1877 13.2071C39.3513 13.924 38.0351 15.246 37.3604 16.0951C36.679 16.9328 35.7502 18.3028 35.2089 19.2487C34.4101 20.5947 33.5076 22.9072 33.119 24.3626L33.0723 24.6134L34.6323 24.5678C34.8591 23.7905 35.1782 22.8138 35.4859 22.0604L35.4847 22.0581Z" fill="white"/>
<path d="M72.8597 44.1663C72.4323 44.7248 71.6119 45.6309 70.8689 46.3398C69.1276 48.0357 67.5835 49.115 65.4673 50.1852C64.0611 50.8759 63.1175 51.252 61.6247 51.6748C59.5188 52.2447 58.0647 52.4738 55.6693 52.4726C53.7685 52.4817 52.776 52.3358 51.1738 52.0315C48.6473 51.5209 46.0788 50.4394 43.8737 49.0455C43.3666 48.7184 42.6213 48.1941 42.2213 47.8909C41.3667 47.247 39.4146 45.3209 38.7559 44.5094C37.5571 43.0312 36.1839 40.7495 35.482 38.9624C35.1743 38.209 34.8552 37.2323 34.6284 36.455L33.0684 36.4094L33.1151 36.6602C33.5037 38.1156 34.4062 40.4281 35.205 41.7741C35.7463 42.72 36.6751 44.09 37.3565 44.9277C38.0323 45.7756 39.3485 47.0988 40.1838 47.8157C43.2367 50.4223 46.9938 52.2116 50.9424 52.8989C51.4108 52.9752 52.2028 53.0892 52.7099 53.1348C53.8552 53.2636 57.2066 53.1963 58.32 52.99C59.6202 52.7769 60.9854 52.4521 62.2389 52.0179C65.5482 50.8987 68.6205 48.9395 71.0683 46.4401C71.4911 46.007 72.0905 45.3311 72.413 44.9436C72.7355 44.5561 72.9736 44.2142 72.9429 44.1834C72.9041 44.1527 72.8733 44.1458 72.8585 44.1686L72.8597 44.1663Z" fill="white"/>
</svg>
